<svg xmlns="http://www.w3.org/2000/svg" viewBox="0 0 900 700">
  <rect width="900" height="700" fill="#d8d6d0"/>
  <rect x="80" y="80" width="740" height="540" rx="12" fill="#b9b7b0"/>
  <path d="M170 560V260h120v300M610 560V260h120v300" fill="none" stroke="#343434" stroke-width="20"/>
  <path d="M145 260h170M585 260h170M125 560h210M565 560h210" stroke="#343434" stroke-width="18"/>
  <path d="M330 560V300c0-105 240-105 240 0v260" fill="none" stroke="#4f4e4a" stroke-width="22"/>
  <path d="M385 560V320c0-55 130-55 130 0v240" fill="#d8d6d0" stroke="#4f4e4a" stroke-width="10"/>
  <path d="M215 195h470" stroke="#5f5e59" stroke-width="8"/>
  <circle cx="450" cy="190" r="58" fill="none" stroke="#4b4a46" stroke-width="8"/>
  <path d="M430 185l18 18 33-42" fill="none" stroke="#4b4a46" stroke-width="8" stroke-linecap="round" stroke-linejoin="round"/>
  <g opacity=".45" stroke="#fff" stroke-width="2">
    <path d="M90 110l720 0M90 590l720 0"/><path d="M110 90v520M790 90v520"/>
  </g>
</svg>
